<svg xmlns="http://www.w3.org/2000/svg" width="706.62" height="682.589" viewBox="0 0 706.62 682.589">
  <g id="Group_235" data-name="Group 235" transform="translate(-747 -638)">
    <g id="create-animate" transform="translate(747 638)">
      <g id="freepik--background-complete--inject-4" transform="translate(35.956 38.189)">
        <g id="elgdlzwg74ct7" transform="translate(540.285 72.954)">
          <rect id="el0eeqgu091pw" width="90.651" height="114.451" fill="#fff"/>
        </g>
        <path id="elccidt389qpb" d="M390.075,237.869h6.516l18.392-.165,65.71-.463-.347.364c-.149-32.681-.347-72.061-.546-114.435h0l.43.43-90.651.331.38-.38c0,33.922.116,62.485.149,82.6V229.7c0-5.425-.116-13.331-.2-23.353-.132-20.161-.314-48.807-.529-82.845v-.4h.4l90.651-.413h.43v.43h0c.149,42.373.281,81.753.4,114.435v.364H391.7C390.62,237.9,390.075,237.869,390.075,237.869Z" transform="translate(150.442 -50.281)" fill="#e0e0e0"/>
        <g id="ellsnchk5ccy" transform="translate(580.128 184.842)">
          <rect id="elll89fywt8do" width="12.57" height="3.06" fill="#e0e0e0"/>
        </g>
        <g id="elravd3owzlp" transform="translate(572.454 112.996)">
          <rect id="eldcgjgelbjsb" width="27.505" height="39.711" fill="#e0e0e0"/>
        </g>
        <g id="elseeoe8yudbo" transform="translate(581.435 71.4)">
          <rect id="els9t4kkxls1r" width="12.57" height="2.613" fill="#e0e0e0"/>
        </g>
        <path id="el5ai3hzc9pjd" d="M168.8,78.91H86.88V185.737l81.919,2.051Z" transform="translate(-47.368 -78.91)" fill="#e0e0e0"/>
        <path id="eljlivyruijjp" d="M161.491,81.21H89.81V178.1l71.681,2.415Z" transform="translate(-45.452 -77.406)" fill="#fff"/>
        <path id="elf3cnl4h7n" d="M144.367,92.563,96.8,90.76v67.711h47.567Z" transform="translate(-40.881 -71.161)" fill="#e0e0e0"/>
        <path id="elj2q7ovlka8i" d="M96.8,158.471l47.567-34.782L96.8,90.76Z" transform="translate(-40.881 -71.161)" fill="#f5f5f5"/>
        <path id="elh292dwm1qb" d="M118.909,178.26H62.99v72.9l55.919,1.406Z" transform="translate(-62.99 -13.943)" fill="#e0e0e0"/>
        <path id="elxe4hthedf4k" d="M113.913,179.83H64.99v66.124l48.923,1.654Z" transform="translate(-61.682 -12.917)" fill="#fff"/>
        <path id="eldynbfgsqzls" d="M102.226,187.59,69.76,186.35v46.21h32.466Z" transform="translate(-58.563 -8.653)" fill="#e0e0e0"/>
        <path id="eldfg81bz8cy" d="M69.76,232.56l32.466-23.734L69.76,186.35Z" transform="translate(-58.563 -8.653)" fill="#f5f5f5"/>
        <path id="elolbnm8fszpq" d="M390.329,440.852c-2.2-1.885-7.1-7.823-3.308-14.736,1.389-2.531,4.333-3.788,7-4.962a28.114,28.114,0,0,0,7.674-3.953c4.151-3.523,5.309-9.361,8.055-14.058,3.176-5.392,9.1-9.444,15.332-9.146,7.161.314,13.132,6.136,15.828,12.768s2.8,13.992,2.861,21.154c0,3.969-.149,8.418-3.076,11.1s-6.748,2.5-10.387,2.382l-39.1-1.075" transform="translate(147.988 127.12)" fill="#f5f5f5"/>
        <path id="elzyion9khvh" d="M466.846,366.18h-93.5L390.2,466.126a11.147,11.147,0,0,0,7.972,8.9l.331.1a5.079,5.079,0,0,1,.827.215,14.547,14.547,0,0,0,1.9.215v.1l.463-.083H443.36a11.78,11.78,0,0,0,2.3-.215,11.23,11.23,0,0,0,9.444-9.775l8.121-68.869.364-2.746h0l3.209-27.273ZM449.2,429.939h-9.593l.976-29.01H451.7Zm3.424-29.01h9.2l-3.424,29.01h-8.27Zm-27.405,61.195-.579-25.189h13.81l-.844,25.189Zm-14.885-25.189h13.43l.579,25.189H412.3Zm1.042,25.189H400.061c-1.059-6.8-2.464-15.646-3.969-25.189h13.231Zm-1.654-32.152L407.5,400.929h15.4l.678,29.01Zm14.736,0-.662-29.01h15.845l-.976,29.01ZM423.629,394,423,367.139h17.763L439.887,394Zm-.926,0H406.908l-2.084-26.86h17.25Zm-16.721,0H389.31c-.6-3.7-1.158-7.211-1.654-10.37-1.737-10.866-2.4-14.885-2.762-16.539h19.02Zm.546,6.963,2.266,29.01h-13.81c-.463-2.944-.943-5.921-1.406-8.9-1.075-6.847-2.167-13.694-3.192-20.112Zm-12.487,29.01h-9.014l-4.962-29.01h9.328c1.571,8.931,3.076,18.9,4.664,28.977Zm1.108,6.963c1.373,8.716,2.729,17.317,3.953,25.189h-8.666L386.2,436.935Zm43.382,25.189.827-25.189h9.229l-2.15,25.189ZM440.813,394l.893-26.86h12.9L452.292,394ZM384,367.139c.364,1.952,2.084,12.52,4.366,26.86h-9.394l-4.548-26.893Zm70.606,94.985h-7.228l2.167-25.189h8.022ZM462.629,394h-9.411l2.315-26.86H465.8Z" transform="translate(139.96 108.941)" fill="#e0e0e0"/>
      </g>
      <g id="freepik--Floor--inject-4" transform="translate(0 622.783)">
        <path id="eluwhwh6d6ub" d="M747.87,433c0,.347-158.2.628-353.293.628S41.25,433.412,41.25,433s158.164-.629,353.327-.629S747.87,432.651,747.87,433Z" transform="translate(-41.25 -432.37)" fill="#263238"/>
      </g>
      <g id="freepik--Sketches--inject-4" transform="translate(221.46 0)">
        <g id="el4fpuwtgo7h8" transform="translate(7.806 85.987)">
          <rect id="el4vaskyrgfs8" width="102.278" height="142.717" fill="#f5f5f5"/>
        </g>
        <path id="el0t94pmulz46d" d="M194.23,194.8h22.163l-.232.248c0-7.211-.083-16.142-.132-26.363v-.331h.314l15.96-.281h.364v.364c.165,8.137.347,17.1.546,26.545l-.413-.4,22.725.149-.413.447c-.215-7.724-.413-15.762-.629-23.982-.165-6.2-.331-12.322-.48-18.292l.165.331L222.529,128.61h.5L193.8,155.073l.1-.232c.149,12.305.265,22.262.347,29.192v10.072a4.963,4.963,0,0,1,0,.728,3.1,3.1,0,0,1,0-.662v-2.034c0-1.869-.116-4.515-.215-7.922-.149-6.963-.38-16.986-.662-29.357v-.132l.1-.1,29.059-26.612.232-.215.265.2,31.755,24.379.149.132v.2q.215,8.948.48,18.292.3,12.4.612,23.965v.447h-.413l-22.725-.2h-.43v-.4c-.165-9.444-.331-18.408-.463-26.463l.364.364-15.944.215.314-.331v26.6h-.232l-16.44-.182h-5.375Z" transform="translate(-163.236 -8.751)" fill="#263238"/>
        <path id="el3ymlhkdt9pn" d="M183.805,110.43h6.335l18.193.132,66.041.6h.331V242.777H273.6l-89.56.546h-.4V120.238c0,6.351.1,15.6.165,27.273.1,23.353.232,56.432.38,95.415l-.38-.4,89.56-.612h.678l-.43.43V111.505l.347.347-65.809-.959-18.193-.314h-4.8Z" transform="translate(-169.598 -20.11)" fill="#263238"/>
        <path id="el4qwso3hdvwm" d="M230.92,105.834,252.454,127.2l3.771-4.879L234.559,102.89Z" transform="translate(-138.681 -25.04)" fill="#455a64"/>
        <path id="el4k47x1jz5kr" d="M175.15,187.587l21.518,21.369,3.787-4.879L178.772,184.66Z" transform="translate(-175.15 28.431)" fill="#455a64"/>
        <path id="ele08xclydcag" d="M251.646,186.313a40.9,40.9,0,0,1-5.772.347c-3.572.1-8.518.182-13.976.232H218.667l.314-.331v4.813a7.378,7.378,0,0,1-.1,1.77,6.615,6.615,0,0,1-.248-1.77c-.1-1.125-.215-2.762-.314-4.78v-.331h.347c3.457-.1,8.088-.182,13.231-.215h13.959a35.929,35.929,0,0,1,5.789.265Z" transform="translate(-146.92 29.324)" fill="#263238"/>
        <g id="elhfo7bw03z0f" transform="translate(178.59 117.908)">
          <rect id="el4piw5ocq6ck" width="71.565" height="99.847" fill="#ebebeb"/>
        </g>
        <path id="eltapag0psazk" d="M298.366,191.5l.265-.083.777-.182,2.977-.678,11.1-2.481-.165.281c-1.092-4.962-2.448-11.032-3.986-18.011v-.314h.314l10.866-2.53.347-.083.083.347c1.307,5.541,2.762,11.577,4.267,18.077l-.463-.3,15.563-3.308-.331.513c-1.257-5.243-2.58-10.717-3.936-16.308-1.025-4.217-2.018-8.369-3.01-12.437l.232.281-25.255-12.09.48-.116-16.142,22.361v-.248l4.449,19.847c.513,2.332.91,4.168,1.191,5.474l.314,1.439a4.642,4.642,0,0,1,.083.513,1.364,1.364,0,0,0-.132-.447,13.925,13.925,0,0,1-.364-1.373l-1.323-5.359c-1.141-4.78-2.779-11.577-4.813-20.012v-.248l16.01-22.46.182-.265.3.149,25.3,12.024h.182v.2c.976,4.052,1.985,8.27,2.994,12.437,1.356,5.59,2.679,11.065,3.936,16.308l.1.43-.43.1-15.58,3.192h-.38v-.38c-1.489-6.434-2.911-12.537-4.2-18.094l.447.281-10.883,2.63.248-.4c1.472,7,2.746,13.116,3.787,18.061v.232h-.232l-11.3,2.249-2.944.562Z" transform="translate(-98.903 0.077)" fill="#263238"/>
        <path id="elsc8veea63x" d="M280.33,138.66l1.075-.265,3.225-.695,12.437-2.6,45.284-9.312.331-.083v.347L362,215.5l.083.413-.413.1-.463.1-61.195,13.479h-.4l-.083-.38C293.826,202.452,289,179.76,285.573,163.7c-1.654-7.939-2.994-14.24-3.92-18.59-.43-2.134-.777-3.771-1.009-4.962-.1-.529-.182-.926-.248-1.24s0-.43,0-.413a2.032,2.032,0,0,1,.116.447c.083.314.182.744.314,1.29.265,1.158.629,2.828,1.125,4.962.959,4.366,2.365,10.684,4.135,18.656,3.506,15.96,8.451,38.553,14.29,65.164l-.48-.3,61.195-13.562.463-.1-.331.513c-7.161-33.624-13.777-64.685-19.086-89.527l.414.265-45.135,8.915-12.669,2.547-3.308.628Z" transform="translate(-106.371 -10.118)" fill="#263238"/>
        <path id="elebi8fdw2xuj" d="M311.76,123.681l17.862,11.462,1.869-3.887L313.827,121.15Z" transform="translate(-85.818 -13.1)" fill="#455a64"/>
        <path id="elnjggrelu2b" d="M285.58,187.79l17.862,11.462,1.869-3.887-17.68-10.105Z" transform="translate(-102.938 28.823)" fill="#455a64"/>
        <path id="el5q4poul7bpi" d="M337.92,177.36a19.511,19.511,0,0,1-3.887,1.174c-2.415.612-5.789,1.406-9.51,2.233-3.473.777-6.616,1.439-9.03,1.9l.248-.4a23.714,23.714,0,0,1,.81,4.532,24.138,24.138,0,0,1-1.439-4.366l-.083-.314.331-.083c2.332-.6,5.508-1.34,8.981-2.117s7.112-1.522,9.56-1.985a19.219,19.219,0,0,1,4.019-.579Z" transform="translate(-83.68 23.657)" fill="#263238"/>
        <g id="el42bc6rbcpx5" transform="translate(194.087)">
          <rect id="ellfb3kbxf9m" width="61.509" height="85.822" fill="#ebebeb"/>
        </g>
        <path id="el6r95rwv12lm" d="M301.348,102.755h.744l2,.232,7.658.959-.265.2c.447-3.424.992-7.625,1.654-12.437v-.314h.314l7.542.893h.364v.364c-.447,3.837-.943,8.071-1.455,12.537l-.347-.447,10.7,1.538-.48.38c.4-3.655.827-7.459,1.257-11.329.331-2.944.662-5.838.976-8.65l.132.347L318.813,73.414h.5l-15.53,10.519.132-.215c-.761,5.723-1.373,10.387-1.819,13.711-.232,1.571-.4,2.828-.529,3.771a11.223,11.223,0,0,1-.232,1.356,6.611,6.611,0,0,1,.083-1.257l.38-3.721c.364-3.308.877-8.121,1.522-13.943V83.5h.116l15.415-10.651.281-.182.232.232,13.364,13.546.149.149v.2c-.314,2.828-.645,5.723-.976,8.65-.43,3.887-.86,7.691-1.273,11.346v.43h-.447l-10.684-1.654h-.4v-.4c.546-4.449,1.075-8.683,1.538-12.537l.314.413-7.525-.959.364-.281c-.695,4.8-1.29,8.981-1.786,12.4v.232h-.232l-7.757-1.24-2-.331A2.663,2.663,0,0,1,301.348,102.755Z" transform="translate(-92.64 -44.801)" fill="#263238"/>
        <path id="elgitmxua0afs" d="M284.43,115.284a5.167,5.167,0,0,1,.132-.943c.132-.628.248-1.654.447-2.8.413-2.514,1.025-6.136,1.786-10.767,1.654-9.394,3.887-22.841,6.616-39.181V61.25h.331l77.734,12.537h.413v.827c-2.961,18.97-5.789,37.015-8.27,53.223v.4h-.38l-56.829-9.312-16.126-2.679-4.234-.728-1.092-.2h.066l1.125.165,4.333.645,16.241,2.5,56.382,8.882-.447.331c2.514-16.225,5.309-34.269,8.27-53.24v-.4l.347.48L293.742,61.994l.4-.281c-2.911,16.225-5.309,29.572-6.98,38.917l-1.968,10.8-.546,2.861C284.529,114.936,284.43,115.284,284.43,115.284Z" transform="translate(-103.69 -52.269)" fill="#263238"/>
        <path id="el92b2rz6y2z4" d="M286.109,70.676l14.753-10.734-2.53-2.712-13.612,11Z" transform="translate(-103.5 -54.898)" fill="#455a64"/>
        <path id="elh55n6bmqm6u" d="M329.269,111.666l14.753-10.734-2.531-2.712-13.612,11Z" transform="translate(-75.277 -28.094)" fill="#455a64"/>
        <path id="el3ew29bw2hh1" d="M336.014,68.73a80.3,80.3,0,0,1-1.373,11.809c-.48,3.027-.943,5.772-1.323,7.823L333.037,88a16.753,16.753,0,0,1,3.87.794,16.771,16.771,0,0,1-3.953-.165h-.314V88.3c.248-2.067.628-4.829,1.092-7.856a85,85,0,0,1,2.282-11.71Z" transform="translate(-72.164 -47.378)" fill="#263238"/>
      </g>
      <g id="freepik--Desk--inject-4" transform="translate(234.625 210.759)">
        <path id="elgkvlhlmz5fr" d="M197.086,277.19c-.3,1.654,0,257.284,0,257.284H185.74V277.19Z" transform="translate(-181.39 -121.821)" fill="#455a64"/>
        <path id="elax8sfvsx5l" d="M315.846,290.78c-.3,1.654,0,234.344,0,234.344H304.5V290.78Z" transform="translate(-103.731 -112.934)" fill="#455a64"/>
        <path id="el82rf0jwl2nl" d="M350.346,265c-.281,1.654,0,277.031,0,277.031H339V265Z" transform="translate(-81.171 -129.792)" fill="#455a64"/>
        <path id="elu3e55imyb0l" d="M347.513,219.138c.926-1.538,0,83.209,0,83.209L337.06,304l2.481-83.8Z" transform="translate(-82.439 -159.796)" fill="#455a64"/>
        <path id="eltaox4fd8qrl" d="M387.936,362.985c-.777,2.349,84.35-155.783,84.35-155.783l-1.571-7.145L263.693,188.1,185,337.9Z" transform="translate(-181.874 -180.079)" fill="#263238"/>
        <path id="elfxq4iva816" d="M388.312,360.517c-.2-4.019,83.639-157.833,83.639-157.833L260.662,183.25,183.11,335Z" transform="translate(-183.11 -183.25)" fill="#455a64"/>
        <path id="elnncz2c02h3b" d="M262.726,313.186l72.872,7.608,46.723-118.024-104.809-12.9L225,308.489Z" transform="translate(-155.717 -178.921)" fill="#f5f5f5"/>
        <path id="elkmvcc1847ah" d="M304.276,208.53a10.491,10.491,0,0,1,1.737.463,17.054,17.054,0,0,1,4.565,2.349,20.012,20.012,0,0,1,5.541,5.938,18.1,18.1,0,0,1,2.663,10.387,20.294,20.294,0,0,1-4.8,12.057,16.738,16.738,0,0,1-5.805,4.5c-2.282,1.059-4.747,1.836-7.211,2.712-1.24.447-2.481.893-3.721,1.406-.612.248-1.207.529-1.819.81l-.893.463a4.254,4.254,0,0,0-.678.6,14.107,14.107,0,0,0-2.332,3.308c-.628,1.191-.992,2.58-1.654,3.9a7.723,7.723,0,0,1-2.961,3.407,7.839,7.839,0,0,1-4.532.629l-8.931-1.042c-1.505-.2-3.01-.413-4.5-.711a9.081,9.081,0,0,1-4.267-1.836,2.663,2.663,0,0,1-.893-2.332,7.989,7.989,0,0,1,.827-2.167c.645-1.323,1.34-2.58,2.034-3.837l2.051-3.721.48-.926.232-.463a.892.892,0,0,0,.083-.347,6.616,6.616,0,0,0-.265-1.919c-.678-2.63-1.654-5.177-2.134-7.79a20.079,20.079,0,0,1,2.994-14.538,25.156,25.156,0,0,1,9.527-8.882,30.648,30.648,0,0,1,10.2-3.308,34.071,34.071,0,0,1,8.137,0c2.216.248,3.92.546,5.061.744l1.307.248a1.289,1.289,0,0,1,.447.116h-.447L303,208.579c-1.158-.132-2.878-.38-5.078-.579a34.979,34.979,0,0,0-8.038.132,30.664,30.664,0,0,0-9.923,3.457,24.378,24.378,0,0,0-9.2,8.716,19.334,19.334,0,0,0-2.828,13.992c.513,2.547,1.439,5.061,2.15,7.757a7.573,7.573,0,0,1,.3,2.183,1.77,1.77,0,0,1-.165.645l-.232.48-.5.926-2.034,3.622c-.695,1.257-1.389,2.514-2.018,3.8a7.756,7.756,0,0,0-.744,1.919,1.77,1.77,0,0,0,.645,1.654,8.435,8.435,0,0,0,3.854,1.654c1.439.3,2.927.513,4.432.711l8.9,1.042a7.227,7.227,0,0,0,4.052-.529,6.9,6.9,0,0,0,2.6-3.043c.645-1.224,1.009-2.613,1.654-3.9a15.15,15.15,0,0,1,2.464-3.49,5.686,5.686,0,0,1,.877-.728l.926-.48,1.886-.843c1.257-.513,2.514-.959,3.754-1.389,2.481-.86,4.962-1.654,7.161-2.663a15.7,15.7,0,0,0,5.574-4.267,19.847,19.847,0,0,0,4.747-11.577,17.664,17.664,0,0,0-2.481-10.105,19.847,19.847,0,0,0-5.326-5.921,18.657,18.657,0,0,0-4.433-2.464C304.871,208.728,304.276,208.563,304.276,208.53Z" transform="translate(-130.366 -167.463)" fill="#979797"/>
        <path id="elglrufx5yra" d="M292.107,237.253a11.919,11.919,0,0,1-.844,2.183c-.6,1.373-1.489,3.308-2.514,5.822-.513,1.24-1.042,2.6-1.571,4.085a11.461,11.461,0,0,1-2.481,4.515,10.436,10.436,0,0,1-5.144,2.5,22.843,22.843,0,0,1-6.053.463,22.5,22.5,0,0,1-5.954-1.158,13.479,13.479,0,0,1-4.962-2.729,6.07,6.07,0,0,1-2.084-4.763,10.981,10.981,0,0,1,1.538-4.217c1.207-2.249,2.216-4.135,3.01-5.59a11.58,11.58,0,0,1,1.207-2,11.859,11.859,0,0,1-.91,2.15c-.728,1.488-1.654,3.424-2.762,5.723a10.569,10.569,0,0,0-1.373,3.986,5.458,5.458,0,0,0,1.9,4.135,13.479,13.479,0,0,0,4.73,2.514,22.378,22.378,0,0,0,11.577.662,9.923,9.923,0,0,0,4.78-2.233,11.065,11.065,0,0,0,2.365-4.2c.562-1.472,1.125-2.845,1.654-4.069,1.108-2.464,2.084-4.4,2.762-5.739A13.9,13.9,0,0,1,292.107,237.253Z" transform="translate(-132.504 -148.52)" fill="#979797"/>
        <path id="ellt2dniiwohm" d="M288.209,242.027a17.877,17.877,0,0,1-3.9.1c-2.4,0-5.706-.165-9.361-.347s-6.946-.413-9.345-.612a16.355,16.355,0,0,1-3.87-.513,17.664,17.664,0,0,1,3.887-.1c2.4,0,5.723.165,9.378.364s6.963.4,9.345.6A16.158,16.158,0,0,1,288.209,242.027Z" transform="translate(-131.699 -145.819)" fill="#979797"/>
        <path id="ela1hdblr8ihl" d="M286.238,244.816a95.924,95.924,0,0,1-12.7.4,91.5,91.5,0,0,1-12.686-.463,95.56,95.56,0,0,1,12.686-.4A95.083,95.083,0,0,1,286.238,244.816Z" transform="translate(-132.274 -143.332)" fill="#979797"/>
        <path id="el2egscmjfqd7" d="M274.147,248.975c.083,0-.132.844-1.141,1.654a6.764,6.764,0,0,1-4.681,1.141,7.26,7.26,0,0,1-2.63-.562,2.944,2.944,0,0,1-1.654-1.654,1.985,1.985,0,0,1,0-1.538c.165-.347.347-.447.4-.414a2.613,2.613,0,0,0,.132,1.654c.413,1.009,1.952,1.555,3.721,1.654a7.245,7.245,0,0,0,4.267-.777C273.634,249.537,274,248.892,274.147,248.975Z" transform="translate(-130.289 -141.173)" fill="#979797"/>
        <path id="elnzxlu0frz4j" d="M275.727,248.505a9.244,9.244,0,0,1,.959-1.935l2.894-5.078c1.29-2.183,2.779-4.7,4.4-7.476a9.923,9.923,0,0,0,1.935-4.416,3.308,3.308,0,0,0-3.225-3.06,6,6,0,0,0-4.581,1.968,26.463,26.463,0,0,0-3.027,4,74.1,74.1,0,0,0-4.4,7.426c-1.092,2.167-1.985,3.986-2.564,5.243a9.92,9.92,0,0,1-.959,1.919,9.715,9.715,0,0,1,.645-2.051c.5-1.29,1.257-3.159,2.332-5.375a73.158,73.158,0,0,1,4.284-7.591,26.681,26.681,0,0,1,3.093-4.184,6.83,6.83,0,0,1,5.243-2.216,4.217,4.217,0,0,1,3.986,3.837,5.475,5.475,0,0,1-.794,2.679c-.43.777-.877,1.455-1.307,2.167l-4.515,7.443-3.142,4.962a12.168,12.168,0,0,1-1.257,1.737Z" transform="translate(-128.148 -155.506)" fill="#979797"/>
        <path id="elo6oxq8quq8s" d="M274.838,219.9a16.311,16.311,0,0,1,.91,5.144,15.976,15.976,0,0,1,0,5.21,16.306,16.306,0,0,1-.91-5.144,15.445,15.445,0,0,1,0-5.21Z" transform="translate(-123.272 -159.284)" fill="#979797"/>
        <path id="el1w384yvjhqv" d="M274.435,219.564c.1,0,0,.314.2.562s.43.4.695.132.165-.513-.116-.695-.5-.116-.562-.215.132-.447.728-.364a1.059,1.059,0,0,1,.827.6,1.191,1.191,0,0,1-1.555,1.555,1.108,1.108,0,0,1-.6-.844C273.972,219.7,274.369,219.465,274.435,219.564Z" transform="translate(-123.647 -159.891)" fill="#979797"/>
        <path id="ell7ovy3d3wge" d="M289.244,222.44a20.527,20.527,0,0,1-4.962,4.234,20.873,20.873,0,0,1-5.772,3.142,32.9,32.9,0,0,1,5.293-3.854,31.671,31.671,0,0,1,5.441-3.523Z" transform="translate(-120.726 -157.623)" fill="#979797"/>
        <path id="el263yw4aqv5l" d="M285.648,221.8c-.1,0,.265-.5.992-.3a1.207,1.207,0,0,1,.81.992,1.34,1.34,0,0,1-2.316,1.092,1.108,1.108,0,0,1-.182-1.307.777.777,0,0,1,.81-.38c.2,0,.265.182.232.232s-.414,0-.5.413a.513.513,0,0,0,.2.48.612.612,0,0,0,.645.1.579.579,0,0,0,.314-.546.562.562,0,0,0-.265-.513C286.045,221.813,285.7,221.912,285.648,221.8Z" transform="translate(-116.601 -158.269)" fill="#979797"/>
        <path id="eldgaandl1dwi" d="M291.848,223.169a86.978,86.978,0,0,1-16.738-3.539,83.126,83.126,0,0,1,16.738,3.539Z" transform="translate(-122.95 -159.46)" fill="#979797"/>
        <path id="elddnrvabllww" d="M255.874,234c.1.232-1.323,1.025-3.142,1.8a8.07,8.07,0,0,1-3.49.992c-.1-.215,1.323-1.025,3.142-1.786a8,8,0,0,1,3.49-1.009Z" transform="translate(-139.868 -150.064)" fill="#263238"/>
        <path id="el72degnrf8gm" d="M278.494,203.08c.232.1-7.195,17.449-16.539,38.735s-17.168,38.487-17.383,38.4,7.211-17.449,16.539-38.751S278.361,202.948,278.494,203.08Z" transform="translate(-142.922 -170.283)" fill="#263238"/>
        <path id="elzmtqnmibi1" d="M300.1,204.7c.215.1-7.608,18.342-17.465,40.736s-18.044,40.488-18.193,40.389,7.591-18.325,17.465-40.736S299.818,204.6,300.1,204.7Z" transform="translate(-129.928 -169.224)" fill="#263238"/>
        <path id="elcr1kiig1qwa" d="M303.055,254.532c0,.232-13.479-1.257-30.035-3.308s-29.952-3.953-29.919-4.184,13.463,1.24,30.035,3.308S303.088,254.284,303.055,254.532Z" transform="translate(-143.881 -141.553)" fill="#263238"/>
        <path id="ellhtprsdr9sk" d="M308.711,242.085a11.229,11.229,0,0,1-2.382-.132l-6.434-.662c-5.441-.612-12.934-1.505-21.22-2.531s-15.762-2.034-21.187-2.779l-6.4-.943a14.785,14.785,0,0,1-2.349-.463,11.211,11.211,0,0,1,2.382.132l6.45.662c5.425.612,12.934,1.489,21.22,2.531s15.762,2.018,21.17,2.779l6.417.943a12.714,12.714,0,0,1,2.332.463Z" transform="translate(-140.193 -149.697)" fill="#263238"/>
        <path id="ele0wbcl4keb8" d="M322.611,212.2a11.741,11.741,0,0,1-2.382-.116L313.8,211.4c-5.441-.6-12.95-1.488-21.22-2.53s-15.778-2.018-21.187-2.779l-6.467-.91a11.162,11.162,0,0,1-2.332-.463,14.984,14.984,0,0,1,2.382.132l6.434.662c5.441.612,12.95,1.505,21.22,2.531s15.778,2.034,21.187,2.8l6.417.926a14.788,14.788,0,0,1,2.382.43Z" transform="translate(-131.137 -169.212)" fill="#263238"/>
        <path id="ellzrr18mtga9" d="M268.428,203.809c.132.2-.992,1.059-2.5,1.919S263.119,207.1,263,206.9s.992-1.075,2.5-1.919S268.312,203.594,268.428,203.809Z" transform="translate(-130.872 -169.837)" fill="#263238"/>
        <path id="elykzeu3dwju" d="M251.054,246.29a10.206,10.206,0,0,1-3.688,2.051,10.916,10.916,0,0,1-4.036,1.257,10.486,10.486,0,0,1,3.688-2.051,10.833,10.833,0,0,1,4.036-1.257Z" transform="translate(-143.731 -142.027)" fill="#263238"/>
        <path id="eld6xguxdrzlq" d="M267.926,252.227a11.376,11.376,0,0,1,.413-2.762l.3.48a20.787,20.787,0,0,1-2.6-.314l.463-.3h0c-.314.959-.612,1.852-.877,2.6l-.3-.48a10.569,10.569,0,0,1,2.6.744c.1.116-.943.149-2.712,0H264.8l.116-.447c.2-.761.463-1.654.761-2.63h0l.116-.347h.364l2.6.43.43.1-.132.38C268.439,251.4,267.992,252.359,267.926,252.227Z" transform="translate(-129.691 -140.405)" fill="#263238"/>
        <path id="el165r5gfvxlz" d="M307.7,313.68l84.35-50.18H335.072Z" transform="translate(-101.638 -130.773)" fill="#263238"/>
        <path id="elltr247l8t0i" d="M309.78,194.763,328.2,217.388l3.523-6.814L317.239,192.53Z" transform="translate(-100.278 -177.182)" fill="#263238"/>
        <path id="elecp9gwbvsk9" d="M388.27,267.45v-8.9L336.7,257.46,313.48,300.313Z" transform="translate(-97.859 -134.723)" fill="#263238"/>
      </g>
      <g id="freepik--Character--inject-4" transform="translate(231.916 182.912)">
        <rect id="el52tv7t7lke" width="9.063" height="162.2" transform="translate(60.546 337.477)" fill="#455a64"/>
        <path id="el1awhf0tf0j2" d="M317.084,372.754c0,11.958-29.919,21.633-66.851,21.633s-66.851-9.675-66.851-21.633c0-3.738-1.654-11.577.728-19.1,4.118-12.52,40.769-2.514,66.157-2.514,27.223,0,61.542-4.962,65.892,7.079C318.043,363.657,317.084,369.628,317.084,372.754Z" transform="translate(-180.59 -48.095)" fill="#263238"/>
        <ellipse id="ellk7xd3fd8d" cx="66.851" cy="21.633" rx="66.851" ry="21.633" transform="translate(2.758 287.132)" fill="#455a64"/>
        <path id="elr5k6zpiiu4" d="M223.512,419.221s50.66-3.473,52.925,67.166h-8.27s4.135-57.97-44.788-59.624v-6.235" transform="translate(-154.068 -1.116)" fill="#455a64"/>
        <path id="elte2s4myupho" d="M240.725,419.221s-50.66-3.473-52.925,67.166h8.27s-4.135-57.97,44.788-59.624v-6.235" transform="translate(-177.335 -1.116)" fill="#455a64"/>
        <g id="elz7k1en3mwed" transform="translate(103.961 61.918)">
          <rect id="elrsxv789h8zl" width="80.033" height="9.245" fill="#979797"/>
        </g>
        <path id="el303u9riy1me" d="M272.438,430l7.707-16.126L250.027,399.24,238.45,422.709l1.8,1.025c8.088,4.515,41.431,22.328,47.815,23.337C295.2,448.213,272.438,430,272.438,430Z" transform="translate(-144.214 -14.163)" fill="#979797"/>
        <g id="elwp1y50qyuid" transform="translate(94.484 399.731)">
          <g id="el4273r23op4" opacity="0.3">
            <path id="el6tcf6sbeifk" d="M249.4,421.993a11.577,11.577,0,0,0-.728-8.27A11.329,11.329,0,0,0,242.7,408.1l-4.1,8.418Z" transform="translate(-238.6 -408.1)" fill="#fff"/>
          </g>
        </g>
        <g id="eljmar2yayn5h" transform="translate(94.253 407.901)">
          <path id="elpqk8gux5pg" d="M283.314,430.324s7.707,6.946,5.871,7.873S252.965,422.4,238.46,413.685l.364-.645,39.942,19.847S281.528,429.513,283.314,430.324Z" transform="translate(-238.46 -413.04)" fill="#fff" opacity="0.3"/>
        </g>
        <path id="elhps79ejbjpm" d="M238.4,412.89l.5.314,1.439.81,5.359,2.894c4.548,2.415,10.866,5.673,17.912,9.113s13.513,6.417,18.193,8.518l5.59,2.431,1.522.645.546.182-.513-.265-1.489-.711-5.524-2.547c-4.681-2.167-11.114-5.177-18.193-8.617s-13.38-6.616-17.962-9l-5.408-2.8-1.489-.744A2.154,2.154,0,0,0,238.4,412.89Z" transform="translate(-144.247 -5.237)" fill="#263238"/>
        <path id="elzkethnuqnrb" d="M262.68,426.642a14.539,14.539,0,0,1,2.3-2.117,12.865,12.865,0,0,1,2.894-1.174,4.4,4.4,0,0,0-3.109.844,4.532,4.532,0,0,0-2.084,2.448Z" transform="translate(-128.369 1.586)" fill="#263238"/>
        <path id="elnc70yrxfb1" d="M258.642,420.687a3.694,3.694,0,0,0,1.505-.695c.761-.48,1.373-.943,1.307-1.042a3.589,3.589,0,0,0-1.505.695C259.237,420.108,258.576,420.571,258.642,420.687Z" transform="translate(-131.013 -1.275)" fill="#263238"/>
        <path id="ell4zix1q0qb" d="M257.551,418.806c0,.116.662,0,1.406-.182s1.323-.48,1.29-.579-.662,0-1.406.182S257.517,418.707,257.551,418.806Z" transform="translate(-131.725 -1.892)" fill="#263238"/>
        <path id="el61z1u5fk84f" d="M257.45,416.32a4.81,4.81,0,0,0,1.472.976,3.919,3.919,0,0,0,1.654.6,4.605,4.605,0,0,0-1.472-.959A3.82,3.82,0,0,0,257.45,416.32Z" transform="translate(-131.789 -2.994)" fill="#263238"/>
        <path id="el718525iq5qd" d="M257.723,415c-.083.083.529.794,1.505,1.373a3.44,3.44,0,0,0,1.935.645,10.147,10.147,0,0,0-1.737-.992,10.785,10.785,0,0,0-1.7-1.025Z" transform="translate(-131.616 -3.857)" fill="#263238"/>
        <path id="elrk1ko3rok2q" d="M260.047,419.231a6.118,6.118,0,0,0,1.935.943,13.642,13.642,0,0,0,2.282.546,6.519,6.519,0,0,0,1.422,0,1.256,1.256,0,0,0,.777-.364.893.893,0,0,0,0-.926,3.953,3.953,0,0,0-4.962-1.091,3.606,3.606,0,0,0-1.257.992c-.248.281-.331.48-.314.5a6.019,6.019,0,0,1,1.654-1.224,3.854,3.854,0,0,1,2.183-.281,3.308,3.308,0,0,1,2.216,1.29c.2.38-.1.678-.529.711a5.924,5.924,0,0,1-1.323,0,13.983,13.983,0,0,1-2.233-.446A16.787,16.787,0,0,0,260.047,419.231Z" transform="translate(-130.168 -1.969)" fill="#263238"/>
        <path id="elmnf56q0g1k" d="M260.8,420.764a2.454,2.454,0,0,0,.877-1.24,3.572,3.572,0,0,0,.149-1.654,2.15,2.15,0,0,0-1.125-1.77.843.843,0,0,0-1.025.612,2.216,2.216,0,0,0-.1,1.025,6.069,6.069,0,0,0,.347,1.654c.314.893.678,1.356.728,1.323s-.215-.529-.463-1.406a6.714,6.714,0,0,1-.232-1.555c0-.529.1-1.356.628-1.207s.761.91.877,1.439a3.54,3.54,0,0,1,0,1.522,9.237,9.237,0,0,1-.662,1.257Z" transform="translate(-130.411 -3.155)" fill="#263238"/>
        <path id="el2ss301vstd5" d="M241.2,408.094a12.035,12.035,0,0,1,2.183,1.158,10.883,10.883,0,0,1,3.887,4.366,10.766,10.766,0,0,1,.943,5.756c-.165,1.522-.546,2.415-.48,2.431s.149-.2.3-.612a7.839,7.839,0,0,0,.463-1.77A10.155,10.155,0,0,0,243.532,409a9.511,9.511,0,0,0-1.654-.761C241.448,408.111,241.2,408.061,241.2,408.094Z" transform="translate(-142.416 -8.38)" fill="#263238"/>
        <path id="ell0yppgb7y3" d="M249.239,401.43a54.583,54.583,0,0,0-3.308,6.053,56.6,56.6,0,0,0-2.911,6.252,61.2,61.2,0,0,0,3.308-6.07A59.531,59.531,0,0,0,249.239,401.43Z" transform="translate(-141.225 -12.731)" fill="#263238"/>
        <path id="elwlbxrnw3qle" d="M248.28,415.843a27.241,27.241,0,0,0,8.766,4.366c0-.116-1.985-.943-4.4-2.15S248.346,415.743,248.28,415.843Z" transform="translate(-137.786 -3.311)" fill="#263238"/>
        <path id="elprxxycvx" d="M244.74,414.1c-.116,0,0,.5,0,1.042s-.1.992,0,1.042.4-.4.413-1.025S244.84,414.052,244.74,414.1Z" transform="translate(-140.134 -4.447)" fill="#263238"/>
        <path id="ellbdv9ile8u" d="M244.209,411.771c-.116,0,0,.447.083.91s.38.81.48.777,0-.447-.083-.91S244.309,411.738,244.209,411.771Z" transform="translate(-140.48 -5.97)" fill="#263238"/>
        <path id="el1yxs4nhlaa7" d="M242.64,410.091c0,.116.364.3.728.678s.579.761.695.728,0-.579-.4-1.025S242.657,409.975,242.64,410.091Z" transform="translate(-141.474 -7.102)" fill="#263238"/>
        <path id="eleoa7lgjnqe" d="M241.452,409c-.083,0,0,.314.215.529s.447.331.529.265,0-.314-.232-.529A.85.85,0,0,0,241.452,409Z" transform="translate(-142.271 -7.781)" fill="#263238"/>
        <path id="elcyuyguk3vug" d="M272.49,441.19l9.692-15.034L254.066,407.83,239.66,429.662l1.654,1.257c7.443,5.491,38.272,27.372,44.474,29.175C292.8,462.178,272.49,441.19,272.49,441.19Z" transform="translate(-143.423 -8.546)" fill="#979797"/>
        <g id="elrja9dsb5yj" transform="translate(96.634 412.962)">
          <g id="elef9qlchtxdw" opacity="0.3">
            <path id="elr4hlu3kb93" d="M249.89,430.82a11.577,11.577,0,0,0,.331-8.27,11.3,11.3,0,0,0-5.193-6.45l-5.127,7.823Z" transform="translate(-239.9 -416.1)" fill="#fff"/>
          </g>
        </g>
        <g id="elr7hbabucs68" transform="translate(96.32 420.57)">
          <path id="el2ox4mfm7wic" d="M282.116,443.458s6.765,7.873,4.829,8.567-33.938-20.244-47.236-30.73l.447-.6,37.114,24.809S280.429,442.466,282.116,443.458Z" transform="translate(-239.71 -420.7)" fill="#fff" opacity="0.3"/>
        </g>
        <path id="elcv9d13vpd0q" d="M239.72,420.52l.447.364,1.34.992,4.962,3.556c4.2,2.961,10.056,7,16.622,11.3s12.6,8.071,16.986,10.734l5.243,3.126,1.439.827a2.643,2.643,0,0,0,.513.265,3.11,3.11,0,0,0-.48-.331l-1.389-.893-5.16-3.225c-4.366-2.729-10.37-6.533-16.936-10.833s-12.437-8.27-16.671-11.214l-4.962-3.44-1.373-.926a1.9,1.9,0,0,0-.579-.3Z" transform="translate(-143.383 -0.248)" fill="#263238"/>
        <path id="elkj85csb1tzo" d="M262.24,437.014a13.235,13.235,0,0,1,2.547-1.819,14.622,14.622,0,0,1,3.01-.81,4.565,4.565,0,0,0-3.192.447A4.466,4.466,0,0,0,262.24,437.014Z" transform="translate(-128.657 8.745)" fill="#263238"/>
        <path id="el5unioy54jot" d="M258.9,430.663a3.755,3.755,0,0,0,1.654-.5c.844-.38,1.472-.777,1.422-.876a3.754,3.754,0,0,0-1.654.5C259.5,430.167,258.867,430.564,258.9,430.663Z" transform="translate(-130.842 5.487)" fill="#263238"/>
        <path id="el225qcbj0zqk" d="M258,428.685c0,.116.645.116,1.406,0s1.389-.314,1.373-.413a2.708,2.708,0,0,0-1.422,0A2.817,2.817,0,0,0,258,428.685Z" transform="translate(-131.43 4.768)" fill="#263238"/>
        <path id="elfahpj160f9" d="M258.19,426.337a5.1,5.1,0,0,0,1.34,1.141,4.365,4.365,0,0,0,1.555.81,4.69,4.69,0,0,0-1.34-1.158C258.934,426.585,258.24,426.237,258.19,426.337Z" transform="translate(-131.306 3.545)" fill="#263238"/>
        <path id="eljmkqlrsd53r" d="M258.635,425a3.63,3.63,0,0,0,1.323,1.555,3.307,3.307,0,0,0,1.819.877,13.827,13.827,0,0,0-1.571-1.207A13.391,13.391,0,0,0,258.635,425Z" transform="translate(-131.023 2.682)" fill="#263238"/>
        <path id="elwa60rwg2zp" d="M260.472,429.317a6.086,6.086,0,0,0,1.8,1.158,11.841,11.841,0,0,0,2.2.827,5.736,5.736,0,0,0,1.389.281,1.24,1.24,0,0,0,.81-.281.86.86,0,0,0,.2-.893,3.936,3.936,0,0,0-4.714-1.654,3.638,3.638,0,0,0-1.373.81c-.281.265-.4.447-.364.463a6.184,6.184,0,0,1,1.819-1.009,3.969,3.969,0,0,1,2.2,0,3.308,3.308,0,0,1,2.034,1.555c.149.4-.182.661-.612.645a8.654,8.654,0,0,1-1.307-.232,14.291,14.291,0,0,1-2.167-.744C261.183,429.73,260.5,429.317,260.472,429.317Z" transform="translate(-129.849 4.981)" fill="#263238"/>
        <path id="elz3ip8nzewqa" d="M261.014,431.115a2.4,2.4,0,0,0,1.025-1.108,3.671,3.671,0,0,0,.38-1.654,2.2,2.2,0,0,0-.91-1.9.86.86,0,0,0-1.092.48,2.034,2.034,0,0,0-.215.992,6.32,6.32,0,0,0,.132,1.654,3.308,3.308,0,0,0,.546,1.406,12.611,12.611,0,0,1-.265-1.455,6.864,6.864,0,0,1,0-1.571c0-.546.281-1.34.794-1.125s.645.992.678,1.538a3.506,3.506,0,0,1-.248,1.505,6.865,6.865,0,0,1-.827,1.24Z" transform="translate(-129.994 3.596)" fill="#263238"/>
        <path id="eln642shnk6m" d="M243.1,416.11a12.8,12.8,0,0,1,2.034,1.422,10.9,10.9,0,0,1,3.308,4.829,10.735,10.735,0,0,1,.215,5.822c-.364,1.489-.843,2.316-.777,2.349a1.836,1.836,0,0,0,.364-.562,9.083,9.083,0,0,0,.695-1.654,10.32,10.32,0,0,0-.116-6.037,10.2,10.2,0,0,0-3.49-4.962,8.566,8.566,0,0,0-1.571-.976,2.117,2.117,0,0,0-.662-.232Z" transform="translate(-141.173 -3.132)" fill="#263238"/>
        <path id="elsgxiosvi9bo" d="M252.521,410.21a55.982,55.982,0,0,0-4.019,5.59,60.588,60.588,0,0,0-3.672,5.822,55.167,55.167,0,0,0,4-5.59A60.528,60.528,0,0,0,252.521,410.21Z" transform="translate(-140.042 -6.99)" fill="#263238"/>
        <path id="el7xsmf7nbyhb" d="M249.15,424.691a19.649,19.649,0,0,0,3.837,3.093,18.853,18.853,0,0,0,4.3,2.349c0-.1-1.836-1.191-4.085-2.7S249.233,424.609,249.15,424.691Z" transform="translate(-137.217 2.478)" fill="#263238"/>
        <path id="elvg67riw40kr" d="M245.984,422.51c-.116,0-.116.5-.2,1.042s-.232.976-.132,1.025.447-.347.529-.976S246.083,422.494,245.984,422.51Z" transform="translate(-139.525 1.053)" fill="#263238"/>
        <path id="el1h5oacitz3g" d="M245.632,420.141c-.1,0-.116.43,0,.91s.265.86.38.844.116-.447,0-.926S245.748,420.108,245.632,420.141Z" transform="translate(-139.57 -0.497)" fill="#263238"/>
        <path id="el0s1ey5quju" d="M244.28,418.264c0,.116.331.347.645.761s.48.844.6.827.132-.562-.265-1.075S244.313,418.164,244.28,418.264Z" transform="translate(-140.402 -1.746)" fill="#263238"/>
        <path id="el5k7yi0m2504" d="M243.246,417.1c-.1,0,0,.314.149.562s.38.38.48.314,0-.314-.149-.546S243.329,416.963,243.246,417.1Z" transform="translate(-141.104 -2.513)" fill="#263238"/>
        <g id="elkaxi5tax1d" transform="translate(103.234 407.487)">
          <path id="eltz270pa8so" d="M243.89,416l28.265,18.21,1.72-2.663L245.61,412.79Z" transform="translate(-243.89 -412.79)" opacity="0.2"/>
        </g>
        <path id="el4vhr8n51w3" d="M274.492,339.51,241.43,448.139l29.324,11.379,42.456-97.532Z" transform="translate(-142.265 -53.222)" fill="#263238"/>
        <path id="eldhrc17dio38" d="M222.542,388.715s114.749-28.58,117.875-29.969c0,0,12.8-37.064-14.042-51.09-25.553-13.364-110.465,31.838-110.465,31.838Z" transform="translate(-158.953 -75.667)" fill="#263238"/>
        <path id="elioymokr24hm" d="M205.113,370.658c13.1,2,27.852,6.616,36.386,7.376,23.155,2.117,34.186-7.36,53.438-2.2.1-14.058-.943-40.108-.943-40.108L186.87,321.52S188.855,358.849,205.113,370.658Z" transform="translate(-177.943 -64.986)" fill="#263238"/>
        <path id="el8ilkcfnkrxl" d="M363.707,368.388h0c3.093-5.756,5.392-12.6,4.1-19.136-2.564-12.983-18.11-14.406-34.335-16.357-36.469-4.4-83.8-10.635-83.8-10.635l8.865,53.107,43.184,3.126L242.69,469.575l42.092,28.232,76.709-125.7c.463-.728.926-1.505,1.389-2.282Z" transform="translate(-141.441 -64.502)" fill="#263238"/>
        <path id="eltc1ixg3wbe" d="M325.019,331.819a21.855,21.855,0,0,1-2.944-.1c-1.9-.116-4.648-.331-8.021-.662-6.765-.629-16.093-1.753-26.363-3.109s-19.582-2.564-26.33-3.308l-7.988-.926a16.926,16.926,0,0,1-2.911-.43,21.866,21.866,0,0,1,2.944.1c1.9.116,4.647.331,8.021.661,6.765.628,16.093,1.753,26.363,3.109s19.582,2.564,26.33,3.308l7.988.926a16.919,16.919,0,0,1,2.911.43Z" transform="translate(-136.36 -63.84)" fill="#455a64"/>
        <path id="elh3oivirsy0g" d="M279.989,325.375c.116.215-.232.645-.695,1.092s-.926.777-1.125.645,0-.744.529-1.273S279.873,325.176,279.989,325.375Z" transform="translate(-118.29 -62.522)" fill="#455a64"/>
        <path id="elyrllz1eqyj" d="M302.467,353.37a4.461,4.461,0,0,1-.546.943l-1.737,2.63-6.45,9.56c-5.441,8.088-12.884,19.3-20.872,31.838s-15.051,24-20.1,32.334c-2.481,4.1-4.5,7.443-5.954,9.924l-1.654,2.663a4.386,4.386,0,0,1-.629.91,7.875,7.875,0,0,1,.48-.992c.38-.711.893-1.654,1.505-2.746,1.323-2.382,3.308-5.805,5.739-10.023,4.962-8.418,11.875-19.946,19.847-32.5s15.53-23.7,21.1-31.689c2.779-4,5.061-7.228,6.616-9.427l1.869-2.53a6.23,6.23,0,0,1,.777-.893Z" transform="translate(-140.238 -44.158)" fill="#455a64"/>
        <path id="elyocxgev7z5" d="M293.065,357.325a40.382,40.382,0,0,1-5.756,0c-3.556-.116-8.452-.281-13.876-.6s-10.32-.794-13.843-1.257c-1.77-.232-3.192-.447-4.168-.629a5.374,5.374,0,0,1-1.522-.364,44.443,44.443,0,0,1,5.756.38c3.539.314,8.418.695,13.827,1.009s10.32.579,13.86.844a37.774,37.774,0,0,1,5.723.612Z" transform="translate(-134.111 -43.433)" fill="#455a64"/>
        <path id="el4p4luesobsv" d="M300.435,229.577s1.919-2.547,4.118-.91,11.892,9.477,11.892,9.477l6.616,17.928-9.411,17.184-16.241-6.963a76.281,76.281,0,0,1,3.539-11.776s-10.9-8.435-7.509-11.759c0,0,.893-1.654,5.524,2.183l4.614,3.837s-8.1-11.313-7.592-13.893h0a3.176,3.176,0,0,1,4-2.812h0Z" transform="translate(-108.683 -126.063)" fill="#ffbe9d"/>
        <path id="elzuqpy2uoli" d="M291.24,231.68l6.7,1.654,29.109,25.718a2.547,2.547,0,0,1,.248,3.589h0a2.547,2.547,0,0,1-3.622.281L294.664,237.9Z" transform="translate(-109.694 -123.734)" fill="#979797"/>
        <g id="elpgmu5j956l" transform="translate(213.467 134.69)">
          <path id="ela7un7k8muys" d="M310.54,251.886l3.209-4.036,1.092,1.075a2.547,2.547,0,0,1,.149,3.424h0a2.53,2.53,0,0,1-3.655.248Z" transform="translate(-310.54 -247.85)" fill="#fff" opacity="0.4"/>
        </g>
        <g id="elpnb2mfdmyth" transform="translate(182.655 108.476)">
          <path id="el3tubzrsmg9r" d="M291.91,233.323,293.035,232l4.565,1.174a1.538,1.538,0,0,1,0,1.538c-.447.579-1.307.1-1.307.1a1.82,1.82,0,0,1,0,1.654c-.414.6-1.439.347-1.439.347a.844.844,0,0,1-.116,1.29l-.414-.364Z" transform="translate(-291.91 -232)" fill="#fff" opacity="0.4"/>
        </g>
        <g id="elebp83ejk1r" transform="translate(185.499 111.287)">
          <path id="elgh8we9yb7xp" d="M295.086,233.7l28.927,24.263-1.522,1.9L293.63,235.7a1.389,1.389,0,0,0,1.472-.48A1.522,1.522,0,0,0,295.086,233.7Z" transform="translate(-293.63 -233.7)" opacity="0.4"/>
        </g>
        <path id="eljhz1rijxq9" d="M296.2,257.738a64.847,64.847,0,0,0,3.093-8.055c.364-2-3.126-15.018,2.084-16.043l1.654.777,4.416,20.939-8.65,8.27Z" transform="translate(-106.45 -122.452)" fill="#ffbe9d"/>
        <path id="elq7im15n0dqp" d="M307.973,246.262c-.149,0-.43-1.207-1.34-3.027a16.838,16.838,0,0,0-4.829-6.07,18.56,18.56,0,0,1-3.49-2.845,4.73,4.73,0,0,1-1.29-3.556,3.143,3.143,0,0,1,1.29-2.216c.529-.347.893-.314.893-.281a6.356,6.356,0,0,0-.678.546,2.944,2.944,0,0,0-.893,2,4.367,4.367,0,0,0,1.274,2.994,22.406,22.406,0,0,0,3.407,2.663,15.547,15.547,0,0,1,4.879,6.516,7.708,7.708,0,0,1,.777,3.275Z" transform="translate(-105.918 -125.978)" fill="#eb996e"/>
        <path id="elwpkx2mbiatb" d="M306.07,251.835a9.591,9.591,0,0,1-.43-1.654c-.232-1.075-.695-2.58-1.207-4.482a26,26,0,0,1-.629-3.192c-.149-1.158-.215-2.4-.413-3.655a12.228,12.228,0,0,0-.43-1.869,12.362,12.362,0,0,0-.728-1.8.562.562,0,0,0-.546-.281,2.961,2.961,0,0,0-.86.3,3.473,3.473,0,0,0-1.373,1.389,7.773,7.773,0,0,0-.926,3.986,19.285,19.285,0,0,0,.5,3.953,15.5,15.5,0,0,1,.413,3.738,8.385,8.385,0,0,1-.86,3.209,12.52,12.52,0,0,0-1.522,4.284,10.524,10.524,0,0,0,.083,1.654,2.5,2.5,0,0,1-.413-1.654,11.577,11.577,0,0,1,1.29-4.515,8.27,8.27,0,0,0,.711-2.977,15.632,15.632,0,0,0-.48-3.556,18.907,18.907,0,0,1-.562-4.118,8.27,8.27,0,0,1,1.042-4.432,5.754,5.754,0,0,1,.711-.959,2.961,2.961,0,0,1,1.009-.744,3.159,3.159,0,0,1,1.191-.38,1.389,1.389,0,0,1,1.273.629,9.679,9.679,0,0,1,.827,2.051,11.433,11.433,0,0,1,.43,2c.182,1.323.232,2.564.347,3.688a25.68,25.68,0,0,0,.513,3.126c.43,1.9.81,3.473.943,4.565a5.659,5.659,0,0,1,.1,1.7Z" transform="translate(-106.115 -122.173)" fill="#eb996e"/>
        <path id="elmnfvqs829s" d="M204.94,252.36l44.623-43.2,22.791,17.1-46.525,55.373Z" transform="translate(-166.127 -138.46)" fill="#979797"/>
        <g id="el1s4r748y7sn" transform="translate(38.813 70.7)">
          <path id="elxvi1i4qxe6f" d="M204.94,252.36l44.623-43.2,22.791,17.1-46.525,55.373Z" transform="translate(-204.94 -209.16)" opacity="0.4"/>
        </g>
        <path id="eljb78to8d53o" d="M258.378,210.256l20.211-2.663c-1.472-1.24-6.285-4.5-18.193-6.616-15.051-2.613-27.786,14.488-27.786,14.488L251.1,229.458l6.9-6.88s10.684-1.555,16.539-2.894A5.16,5.16,0,0,0,277.845,217h-.3C268.831,216.392,261.057,214.06,258.378,210.256Z" transform="translate(-148.033 -143.988)" fill="#ffbe9d"/>
        <path id="el64jwq3g6c1o" d="M256.864,212.327a14.257,14.257,0,0,1-9.493-7.244c.2-.149,1.852,2,4.466,3.969S256.946,212.1,256.864,212.327Z" transform="translate(-138.381 -141.131)" fill="#eb996e"/>
        <path id="elfql7ykff3c" d="M204.158,183.782l-.248,78.908,33.856,1.654,1.025-19.252s12.041,2.4,15.133-8.782c1.985-7.128,1.489-62.27,1.489-62.27Z" transform="translate(-166.8 -161.426)" fill="#ffbe9d"/>
        <path id="eloqn89k4gb1" d="M260.367,166.822c-10.3,3.308-12.785,4.449-17.416,4.813s-35.973.38-38.834,18.061l-.215,2.167v-.083c0,.083-6.765-2.729-4.962,9.51.926,6.384,3.539,12.272,5.971,19.285,1.654,10.387-4.251,12.983-9.13,16.407-1.207.86-2.663,1.919-2.464,3.308s1.654,2.018,2.994,2.233a11.147,11.147,0,0,0,8.154-1.885,47.081,47.081,0,0,1-2.315,4.432c-.662,1.538-.6,3.672.877,4.466a3.771,3.771,0,0,0,2.7.132,13.744,13.744,0,0,0,7.1-4.251,3.01,3.01,0,0,0,1.141,3.837,7.145,7.145,0,0,0,4.234.91c6.616-.1,14.769,0,20.939-6.847,5.706-6.351,7.062-10.42,7.674-19.2,0,0-6.731-1.108-5.954-6.516,1.092-7.476,6.814-7.674,11.065-4.333l4.962-13.149s12.421-8.154,13.132-13.347S270.654,163.481,260.367,166.822Z" transform="translate(-173.739 -166.413)" fill="#263238"/>
        <path id="elvzw1dlxa2ve" d="M309.035,329.3c-10.188-12.471-19.632-23.651-19.632-23.651.43,16.308,2.117,30.432,2.117,30.432l4.846,50.461a14.885,14.885,0,0,1-11.3,15.812c-31.639,7.641-68.671,9.808-89.411-4.433a20.079,20.079,0,0,1-8.6-16.539v-43l-5.441-57.788a93.2,93.2,0,0,1,2.464-27.091,37.66,37.66,0,0,1,33.972-26.843c11.445-.645,24.263-1.654,35.741-1.8a60.384,60.384,0,0,1,37.478,12.256c16.9,12.834,29.671,42.307,41.613,61.079l32.7-39.446,27.042,17.267-36.949,54.579a30.713,30.713,0,0,1-46.641-1.29Z" transform="translate(-181.472 -128.203)" fill="#979797"/>
        <path id="elzowyxq2azsd" d="M196.37,254.706a35.445,35.445,0,0,1,2.431-7.525,37.314,37.314,0,0,1,3.308-7.211,37.891,37.891,0,0,1-2.431,7.525,37.312,37.312,0,0,1-3.308,7.211Z" transform="translate(-171.731 -118.313)" fill="#263238"/>
        <path id="elifojg13g8wq" d="M222.108,264.073a43.567,43.567,0,0,1-7.558-9.593A43.565,43.565,0,0,1,222.108,264.073Z" transform="translate(-159.842 -108.824)" fill="#263238"/>
        <path id="elj48k7lzacth" d="M236.354,241.67a32.467,32.467,0,0,1-9.924,3.192,16.407,16.407,0,0,1,4.863-2.018,16.075,16.075,0,0,1,5.061-1.174Z" transform="translate(-152.074 -117.201)" fill="#263238"/>
        <path id="elvpoaeb8avd" d="M198.66,277.884a22.527,22.527,0,0,1,2.249-5.954,24.063,24.063,0,0,1,3.027-5.59,24.031,24.031,0,0,1-2.249,5.954,23.637,23.637,0,0,1-3.027,5.59Z" transform="translate(-170.233 -101.069)" fill="#263238"/>
        <path id="el63289p3h7n8" d="M200.395,297.3a26.993,26.993,0,0,1-4.168-5.342,26.148,26.148,0,0,1-3.457-5.822,27.818,27.818,0,0,1,4.168,5.342A26.461,26.461,0,0,1,200.395,297.3Z" transform="translate(-174.085 -88.121)" fill="#263238"/>
        <path id="elyuzo3q4ojb" d="M233.972,285.67a38.633,38.633,0,0,1-7.277,3.308,37.61,37.61,0,0,1-7.575,2.5,35.346,35.346,0,0,1,7.261-3.308,36.384,36.384,0,0,1,7.592-2.5Z" transform="translate(-156.854 -88.429)" fill="#263238"/>
        <path id="elf3nx6nowy4d" d="M210.79,285.61a16.06,16.06,0,0,1,0-10.37,30.339,30.339,0,0,1,0,5.193,30.169,30.169,0,0,1,0,5.177Z" transform="translate(-162.864 -95.249)" fill="#263238"/>
        <path id="els30ct622uo" d="M239.252,281.351a29.773,29.773,0,0,1-3.308-8.1,29.473,29.473,0,0,1-1.654-8.617c.232,0,1.108,3.771,2.5,8.369a85.6,85.6,0,0,1,2.464,8.352Z" transform="translate(-146.934 -102.187)" fill="#263238"/>
        <path id="elit25pkbp6l9" d="M260.818,258.948a52.2,52.2,0,0,1-5.971-1.373,48.584,48.584,0,0,1-5.987-1.24,14.29,14.29,0,0,1,6.169.414A14.5,14.5,0,0,1,260.818,258.948Z" transform="translate(-137.407 -107.718)" fill="#263238"/>
        <path id="elasoajqy4qr" d="M269.721,271a24.922,24.922,0,0,1-6.086,2.349,24.624,24.624,0,0,1-6.334,1.538A48.4,48.4,0,0,1,269.721,271Z" transform="translate(-131.887 -98.022)" fill="#263238"/>
        <path id="elrvfnym9646r" d="M273.255,293.163a25.173,25.173,0,0,1,1.075-14.8c.232,0-.513,3.308-.794,7.376S273.536,293.13,273.255,293.163Z" transform="translate(-121.876 -93.209)" fill="#263238"/>
        <path id="elqsmza36mjx" d="M291.925,277.184a59.166,59.166,0,0,1-4.648-3.754c-2.6-2-4.962-3.308-4.846-3.539a13.231,13.231,0,0,1,5.359,2.861A12.934,12.934,0,0,1,291.925,277.184Z" transform="translate(-115.456 -98.748)" fill="#263238"/>
        <path id="eljjulmlu76k" d="M302.928,257.86a60.669,60.669,0,0,1-12.768,7.195,32.052,32.052,0,0,1,6.169-3.969,32.72,32.72,0,0,1,6.6-3.225Z" transform="translate(-110.4 -106.614)" fill="#263238"/>
        <path id="el20vkdfbgmvt" d="M237.25,313.046a32.766,32.766,0,0,1,1.935-7.343,33.083,33.083,0,0,1,2.746-7.062A32.764,32.764,0,0,1,240,305.983,34.185,34.185,0,0,1,237.25,313.046Z" transform="translate(-144.999 -79.947)" fill="#263238"/>
        <path id="elhrqoxa5f4f" d="M216.628,316.471A33.3,33.3,0,0,1,212,310.715c-1.571-2.216-2.878-4.2-3.506-5.293L207.68,304l1.125,1.125c.48.48.711.761.662.827s-.38-.116-.943-.5l.314-.281c.843.943,2.282,2.828,3.854,4.962A31.207,31.207,0,0,1,216.628,316.471Z" transform="translate(-164.335 -76.442)" fill="#263238"/>
        <path id="el8clnnn59rxs" d="M225.26,310.24a39.858,39.858,0,0,1,1.836,7.906,39.217,39.217,0,0,1,.992,8.071,38.224,38.224,0,0,1-1.852-7.922A37.1,37.1,0,0,1,225.26,310.24Z" transform="translate(-152.839 -72.362)" fill="#263238"/>
        <path id="elv8pp5axmqzn" d="M202.832,323.759a46.854,46.854,0,0,1-8.782-9.179,23.766,23.766,0,0,1,4.714,4.3,23.454,23.454,0,0,1,4.069,4.879Z" transform="translate(-173.248 -69.524)" fill="#263238"/>
        <path id="eleub9xi9yz0n" d="M224.207,330.319a39.3,39.3,0,0,1-11.577,0A39.3,39.3,0,0,1,224.207,330.319Z" transform="translate(-161.098 -59.512)" fill="#263238"/>
        <path id="el1b9wnhvtp2r" d="M248.322,319.6a29.617,29.617,0,0,1-5.193,4.846,29.04,29.04,0,0,1-5.739,4.168,30.361,30.361,0,0,1,5.193-4.846,29.591,29.591,0,0,1,5.739-4.168Z" transform="translate(-144.907 -66.241)" fill="#263238"/>
      </g>
      <g id="freepik--Plant--inject-4" transform="translate(83.743 467.546)">
        <path id="ell7sout8kw8" d="M122.029,394.549a18.094,18.094,0,0,0-3.49-17.763,23.932,23.932,0,0,0-16.8-7.773c-2.927-.165-6.169.248-8.137,2.415a7.74,7.74,0,0,0-1.158,7.74,15.678,15.678,0,0,0,4.962,6.4c7.228,6,15.332,10.486,24.61,9" transform="translate(-91.883 -318.585)" fill="#979797"/>
        <path id="el7xrbmsopx36" d="M119.1,400.965a42.192,42.192,0,0,1,26.843-27.637c3.225-1.058,7.327-1.488,9.527,1.092s1.125,6.616-.513,9.576A36.039,36.039,0,0,1,119.2,401.908" transform="translate(-74.086 -316.285)" fill="#979797"/>
        <g id="elepghh87af7d" transform="translate(45.014 56.213)">
          <path id="elmzeggspa0gf" d="M119.1,400.965a42.192,42.192,0,0,1,26.843-27.637c3.225-1.058,7.327-1.488,9.527,1.092s1.125,6.616-.513,9.576A36.039,36.039,0,0,1,119.2,401.908" transform="translate(-119.1 -372.498)" fill="#fff" opacity="0.3"/>
        </g>
        <path id="elbzpzv4vmrfu" d="M128.1,338.51a21.12,21.12,0,0,0-12.487,10.85,37.362,37.362,0,0,0-3.672,16.539c-.215,10.965,4.466,22.692,9.924,32.218,10.172-6.731,14.108-20.31,15.679-27.323,2.481-11.081.232-32.632-9.444-32.218" transform="translate(-78.771 -338.51)" fill="#979797"/>
        <path id="el1m9x0wv68u2j" d="M124.121,422.5a46.809,46.809,0,0,0,.215-5.508,77.587,77.587,0,0,0-4.267-20.277,38.719,38.719,0,0,0-11.974-16.854,25.466,25.466,0,0,0-5.425-3.308,7.263,7.263,0,0,0-2.2-.728,55.16,55.16,0,0,1,7.079,4.664,40.737,40.737,0,0,1,11.379,16.622,89.658,89.658,0,0,1,4.548,19.847" transform="translate(-86.268 -314.106)" fill="#263238"/>
        <path id="el3t2l7skho25" d="M114.913,440.544c.314-2.646.711-6.1,1.191-10.271.976-8.683,2.365-20.674,4.069-33.905s3.424-25.173,4.664-33.823l1.472-10.238a21.863,21.863,0,0,0,.38-3.788,23.289,23.289,0,0,0-.86,3.7c-.48,2.4-1.108,5.888-1.852,10.188-1.472,8.617-3.308,20.558-4.962,33.806s-2.944,25.255-3.7,33.955c-.38,4.366-.662,7.889-.81,10.337" transform="translate(-77.094 -331.964)" fill="#263238"/>
        <path id="el4scact1k5jc" d="M146.336,379.1a7.556,7.556,0,0,0-2.134.546,17.428,17.428,0,0,0-2.431.893,31.426,31.426,0,0,0-3.109,1.456,45.515,45.515,0,0,0-7.492,4.962,47.683,47.683,0,0,0-13.231,17.284,43.6,43.6,0,0,0-2.828,8.5,25.412,25.412,0,0,0-.612,3.308,18.589,18.589,0,0,0-.248,2.58c0,1.422.314,1.836.4,1.852a74.774,74.774,0,0,1,1.307-7.608,49.419,49.419,0,0,1,3.01-8.27,56.667,56.667,0,0,1,5.59-9.146,54.481,54.481,0,0,1,7.393-7.74,50.354,50.354,0,0,1,7.178-5.045C143.425,380.274,146.419,379.332,146.336,379.1Z" transform="translate(-77.257 -311.967)" fill="#263238"/>
        <g id="elxvxn65792ko" transform="translate(0 50.395)">
          <path id="elye3twlz9zyo" d="M122.029,394.549a18.094,18.094,0,0,0-3.49-17.763,23.932,23.932,0,0,0-16.8-7.773c-2.927-.165-6.169.248-8.137,2.415a7.74,7.74,0,0,0-1.158,7.74,15.678,15.678,0,0,0,4.962,6.4c7.228,6,15.332,10.486,24.61,9" transform="translate(-91.883 -368.98)" opacity="0.2"/>
        </g>
        <path id="el003lpllmew2aj" d="M97.34,402.83h56.647V424a28.332,28.332,0,0,1-28.332,28.315h0A28.332,28.332,0,0,1,97.34,424Z" transform="translate(-88.315 -296.45)" fill="#455a64"/>
        <path id="elbt3v4a0ak9q" d="M153.78,411.7a10.487,10.487,0,0,1-2.216,0l-6.037-.182c-5.094-.165-12.123-.38-19.847-.513s-14.885-.149-19.847-.149H99.8a10.257,10.257,0,0,1-2.216-.116,11.893,11.893,0,0,1,2.2-.215c1.422-.083,3.49-.182,6.037-.248,5.111-.149,12.156-.232,19.946-.1s14.885.447,19.847.777c2.547.149,4.6.314,6.02.447a10.143,10.143,0,0,1,2.15.3Z" transform="translate(-88.158 -291.69)" fill="#263238"/>
        <path id="elg4j101f74z" d="M153.77,413.628a12.278,12.278,0,0,1-2.233,0l-6.02-.182c-5.094-.165-12.14-.38-19.847-.513s-14.885-.149-19.847-.149H99.786a10.4,10.4,0,0,1-2.216-.116,12.237,12.237,0,0,1,2.216-.215c1.422-.083,3.49-.182,6.037-.248,5.094-.149,12.14-.232,19.847-.1s14.885.447,19.847.777c2.547.149,4.614.314,6.037.447a10.141,10.141,0,0,1,2.216.3Z" transform="translate(-88.165 -290.428)" fill="#263238"/>
      </g>
    </g>
  </g>
</svg>
