<svg xmlns="http://www.w3.org/2000/svg" width="199" height="50.602" viewBox="0 0 199 50.602">
  <g id="Group_279" data-name="Group 279" transform="translate(-852 -85)">
    <text id="eVENT_cKA" data-name="eVENT   cKA" transform="translate(852 128.602)" fill="#171717" font-size="31" font-family="Raleway-Medium, Raleway" font-weight="500" letter-spacing="0.04em"><tspan x="0" y="0" xml:space="preserve">EVENT   CKA</tspan></text>
    <g id="Group_180" data-name="Group 180" transform="translate(964.146 85)">
      <path id="Path_1158" data-name="Path 1158" d="M22.553,29.525a11.792,11.792,0,0,1-6.907-2.236A12.113,12.113,0,0,1,12.854,10.5l4.949-7,1.413,1-4.949,7a10.377,10.377,0,0,0,2.389,14.381A10.174,10.174,0,0,0,30.9,23.475l4.949-7,1.413,1-4.949,7a11.856,11.856,0,0,1-7.772,4.884A12.031,12.031,0,0,1,22.553,29.525Z" transform="translate(-10.599 -2.196)" fill="#171717"/>
      <path id="Path_1159" data-name="Path 1159" d="M23.381,24.179A6.724,6.724,0,0,1,19.435,22.9a6.9,6.9,0,0,1-1.64-9.586l5.976-8.45a6.806,6.806,0,0,1,5.545-2.876,6.724,6.724,0,0,1,3.946,1.275,6.9,6.9,0,0,1,1.64,9.586L28.926,21.3A6.8,6.8,0,0,1,23.381,24.179ZM29.316,3.723a5.072,5.072,0,0,0-4.132,2.145l-5.976,8.45a5.154,5.154,0,0,0,1.186,7.144,5.038,5.038,0,0,0,7.12-1.158l5.977-8.45A5.154,5.154,0,0,0,32.3,4.71,5.051,5.051,0,0,0,29.316,3.723Z" transform="translate(-11.393 -1.993)" fill="#171717"/>
      <rect id="Rectangle_16" data-name="Rectangle 16" width="1.731" height="5.129" transform="translate(19.309 15.948) rotate(-54.295)" fill="#171717"/>
      <rect id="Rectangle_17" data-name="Rectangle 17" width="1.731" height="5.129" transform="translate(5.427 5.309) rotate(-54.286)" fill="#171717"/>
      <rect id="Rectangle_20" data-name="Rectangle 20" width="1.731" height="9.439" transform="matrix(0.584, -0.812, 0.812, 0.584, 13.056, 3.405)" fill="#171717"/>
      <rect id="Rectangle_21" data-name="Rectangle 21" width="1.731" height="3.381" transform="matrix(0.584, -0.812, 0.812, 0.584, 10.582, 6.904)" fill="#171717"/>
      <rect id="Rectangle_22" data-name="Rectangle 22" width="1.731" height="9.439" transform="matrix(0.584, -0.812, 0.812, 0.584, 8.107, 10.861)" fill="#171717"/>
      <rect id="Rectangle_23" data-name="Rectangle 23" width="1.731" height="12.032" transform="translate(5.102 30.414)" fill="#171717"/>
      <rect id="Rectangle_24" data-name="Rectangle 24" width="11.936" height="1.731" transform="translate(0 41.58)" fill="#171717"/>
      <path id="Path_1160" data-name="Path 1160" d="M19.646,32.591a2.567,2.567,0,1,0-3.427,2.553,2.482,2.482,0,0,0,1.731,0,2.574,2.574,0,0,0,1.7-2.432A.533.533,0,0,0,19.646,32.591Zm-2.561.978a.852.852,0,1,1,.839-.857A.85.85,0,0,1,17.084,33.569Z" transform="translate(-11.12 -4.603)" fill="#171717"/>
      <path id="Path_1161" data-name="Path 1161" d="M18.193,32.982a.839.839,0,1,1-.839-.848A.844.844,0,0,1,18.193,32.982Z" transform="translate(-11.389 -4.898)" fill="#171717"/>
    </g>
  </g>
</svg>
